<svg width="218" height="218" viewBox="0 0 218 218" fill="none" xmlns="http://www.w3.org/2000/svg">
<path d="M63.1624 174.831V152.343C63.1624 152.343 90.8811 165.941 115.462 159.142C126.968 156.004 134.289 143.975 134.289 134.038C134.812 123.578 129.583 116.256 119.123 111.026C108.14 105.273 86.1741 109.457 79.3752 111.549L77.2832 112.072L66.3004 103.704L74.1453 33.1004H146.841V7.47371C134.812 3.28977 122.261 0.674805 109.186 0.674805C49.0416 0.674805 0.92627 49.3132 0.92627 108.934C0.92627 152.343 26.5529 189.998 63.6854 207.257L63.1624 174.831Z" fill="#DC524B"/>
<path d="M146.318 7.47351V33.1002V54.0199H92.4497L88.7887 88.0144C100.295 86.4455 116.507 85.9225 129.059 92.1984C152.071 104.227 156.255 122.009 155.732 134.561C155.209 151.82 142.657 173.262 121.214 179.015C114.415 180.584 107.616 181.63 101.341 181.63C86.1737 181.63 72.5759 177.969 63.6851 174.831V207.257C77.8059 213.533 92.9726 217.717 109.185 217.717C169.33 217.717 217.445 169.078 217.445 109.457C217.445 62.3878 187.634 22.6403 146.318 7.47351Z" fill="#27A161"/>
<path d="M128.537 92.1985C116.508 85.9226 100.296 86.4456 88.2668 88.0146L91.9278 54.0201H145.796V33.1003H73.1L65.2551 103.704L76.238 112.072L78.33 111.549C85.1289 109.457 107.095 105.273 118.077 111.026C129.06 116.779 133.767 124.101 133.244 134.038C132.721 143.975 125.399 156.004 114.416 159.142C89.8358 165.941 62.6402 152.343 62.1172 152.343V174.831C71.0081 177.969 84.6059 181.63 99.7727 181.63C106.049 181.63 112.848 181.107 119.646 179.015C141.089 173.262 153.641 151.82 154.164 134.561C155.733 121.486 151.549 103.704 128.537 92.1985Z" fill="white"/>
</svg>
