<svg width="218" height="218" viewBox="0 0 218 218" fill="none" xmlns="http://www.w3.org/2000/svg">
<path fill-rule="evenodd" clip-rule="evenodd" d="M63.1683 175.197C62.8111 175.075 62.4606 174.953 62.1172 174.832V152.343C62.1706 152.343 62.5018 152.485 63.0798 152.732C63.1068 152.743 63.1343 152.755 63.1624 152.767V152.343C63.1624 152.343 80.6116 160.903 100.098 161.044C104.828 161.007 109.671 160.454 114.416 159.142C125.399 156.004 132.721 143.975 133.244 134.038C133.767 124.101 129.06 116.779 118.077 111.027C114.086 108.936 108.645 108.158 103.009 108.114C93.4485 108.19 83.5511 110.264 79.3752 111.549L77.2832 112.072L77.0252 111.876L76.238 112.073L65.2551 103.705L73.1 33.1006H74.1453L74.1453 33.1004H146.841V7.47371C134.812 3.28977 122.261 0.674805 109.186 0.674805C49.0416 0.674805 0.92627 49.3132 0.92627 108.934C0.92627 152.343 26.5529 189.998 63.6854 207.257L63.1683 175.197Z" fill="white"/>
<path fill-rule="evenodd" clip-rule="evenodd" d="M146.318 33.1003V7.47363C187.634 22.6404 217.445 62.3879 217.445 109.457C217.445 169.078 169.33 217.717 109.185 217.717C92.9726 217.717 77.8059 213.533 63.6851 207.257V175.373C72.5655 178.376 85.4716 181.631 99.7727 181.631C100.049 181.631 100.327 181.63 100.605 181.627C100.85 181.629 101.095 181.63 101.341 181.63C107.616 181.63 114.415 180.584 121.214 179.015C142.657 173.262 155.209 151.82 155.732 134.561C156.255 122.009 152.071 104.227 129.059 92.1985C121.092 88.2147 111.649 86.9705 102.872 86.9943C97.9178 86.9992 93.1018 87.402 88.796 87.9469L92.4496 54.0203H145.796V54.02H146.318V33.1003Z" fill="white"/>
</svg>
